<svg width="88" height="63" viewBox="0 0 88 63" fill="none" xmlns="http://www.w3.org/2000/svg">
<g id="logo" clip-path="url(#clip0_701_38)">
<path id="Vector" d="M71.1459 0.173097C76.5165 4.80721 81.887 9.44494 87.2309 14.1097C81.9587 18.8901 76.4773 23.4593 71.1227 28.1563C71.1352 25.0134 71.103 21.8721 71.1336 18.731C67.7368 18.7364 64.34 18.7114 60.945 18.742C59.3127 18.7456 57.777 19.5679 56.6775 20.7543C46.9251 30.9925 37.1531 41.213 27.4042 51.4549C26.3208 52.5891 24.8102 53.3302 23.2315 53.3158C17.0299 53.3555 10.8261 53.2851 4.62618 53.3571C2.32154 53.2886 0.344421 51.1825 0.346208 48.869C0.23179 46.3608 2.42362 44.1988 4.86574 44.1247C9.7911 44.0778 14.7218 44.1518 19.6472 44.0906C21.4439 44.0797 23.0261 43.0232 24.1596 41.6888C33.7636 31.6022 43.3783 21.5241 52.9877 11.4409C54.0675 10.2526 55.6193 9.52049 57.2212 9.48443C61.8585 9.46459 66.498 9.50246 71.1338 9.46622C71.1243 6.36875 71.0995 3.2711 71.1459 0.173097Z" fill="url(#paint0_linear_701_38)"/>
<path id="Vector_2" d="M3.80518 9.46297C10.5094 9.4069 17.237 9.46838 23.9518 9.44855C25.6824 9.37101 27.4451 10.0256 28.6215 11.3292C31.4121 14.2253 34.1726 17.1554 36.9473 20.0673C38.0841 21.2394 38.7082 22.9452 38.3131 24.5716C37.8823 26.5623 35.9926 28.1453 33.9581 28.1257C32.5763 28.1888 31.3032 27.4783 30.2859 26.5966C28.3837 24.5518 26.5602 22.4277 24.6278 20.4099C23.5211 19.274 21.93 18.7132 20.3675 18.7348C15.3634 18.7132 10.3594 18.7492 5.3552 18.7186C3.3636 18.6573 1.2397 17.7086 0.504921 15.7145C-0.62675 13.1757 1.10383 9.95163 3.80518 9.46297Z" fill="#8C8C8C"/>
<path id="Vector_3" d="M44.7081 35.3726C46.4369 33.9789 49.1472 34.1809 50.6722 35.7909C52.7619 37.9511 54.8073 40.1563 56.899 42.3147C57.986 43.4705 59.5521 44.1305 61.1307 44.1143C64.4668 44.1017 67.8026 44.1287 71.1406 44.098C71.1066 41.0128 71.1281 37.9275 71.1334 34.8424C76.5451 39.4657 81.9156 44.1377 87.2772 48.8205C81.9227 53.4997 76.5395 58.1447 71.1476 62.7788C71.0796 59.6232 71.1547 56.4659 71.1138 53.3104C66.4709 53.2671 61.828 53.3066 57.1851 53.2906C55.585 53.2761 54.0439 52.5062 52.9731 51.3233C49.9821 48.2092 46.9428 45.1439 43.9823 42.003C42.2678 40.115 42.6486 36.8494 44.7081 35.3726Z" fill="#8C8C8C"/>
</g>
<defs>
<linearGradient id="paint0_linear_701_38" x1="43.7865" y1="0.173097" x2="43.7139" y2="56.1684" gradientUnits="userSpaceOnUse">
<stop stop-color="#C12A23"/>
<stop offset="0.932655" stop-color="#102D71" stop-opacity="0.63"/>
<stop offset="0.9999" stop-color="#001AFF" stop-opacity="0.0260417"/>
<stop offset="1" stop-color="#0A3068" stop-opacity="0.66"/>
</linearGradient>
<clipPath id="clip0_701_38">
<rect width="87.2442" height="62.9302" fill="white" transform="translate(0.0930176)"/>
</clipPath>
</defs>
</svg>
